<svg fill="none" height="29" viewBox="0 0 32 29" width="32" xmlns="http://www.w3.org/2000/svg"><path d="m26.2009 29c-.6477-.0262-1.2594-.3052-1.7037-.7773s-.6858-1.0995-.6727-1.7477c.0131-.6481.2798-1.2653.7428-1.7191.463-.4537 1.0854-.7079 1.7337-.7079s1.2707.2542 1.7337.7079c.463.4538.7297 1.071.7428 1.7191.0131.6482-.2285 1.2756-.6728 1.7477s-1.0559.7511-1.7037.7773zm-19.44797-2.68c0-.53.15718-1.0482.45166-1.4889s.71305-.7842 1.20276-.9871c.4897-.2028 1.02859-.2559 1.54846-.1525.51989.1034.99739.3587 1.37219.7335s.6301.8523.7335 1.3722c.1034.5198.0503 1.0587-.1526 1.5484-.2028.4897-.5463.9083-.987 1.2027-.4407.2945-.95886.4517-1.48892.4517-.35211.0003-.70086-.0689-1.02624-.2034-.32538-.1346-.62105-.332-.87012-.5808-.24907-.2489-.44661-.5445-.58142-.8697-.13481-.3253-.20422-.674-.20422-1.0261zm3.80007-5.634c-.2595.0008-.5121-.0836-.71889-.2403-.20684-.1566-.35653-.3768-.42615-.6267l-4.83301-17.45499h-3.39294c-.313489 0-.614151-.12454-.835819-.3462-.221668-.22167-.346191-.52232-.346191-.8358 0-.313491.124523-.614137.346191-.835805s.52233-.34619919.835819-.34619919h4.281c.25949-.00081317.51203.08371429.71875.24056219.20672.156848.35608.377316.42517.627438l4.83297 17.454994h13.178l4.3831-10.04799h-14.6c-.1582.0046-.3156-.02259-.4631-.07994-.1475-.05736-.282-.14373-.3955-.25399-.1136-.11026-.2038-.24217-.2654-.38793s-.0934-.3024-.0934-.46065c0-.15824.0318-.31488.0934-.46064s.1518-.27767.2654-.38793c.1135-.11026.248-.19663.3955-.25399.1475-.05735.3049-.08453.4631-.07993h16.413c.1957-.00005.3882.04865.5604.14171.1721.09306.3184.22754.4255.39129.1079.16428.1735.35268.1909.54844.0175.19576-.0137.39279-.0908.57355l-5.405 12.412c-.0924.2106-.244.3898-.4365.5157s-.4175.1931-.6475.1933z" fill="#e8e8e8"/></svg>