<svg fill="none" height="29" viewBox="0 0 29 29" width="29" xmlns="http://www.w3.org/2000/svg"><path d="m14.5 19.937c4.5 0 8.156-4.473 8.156-9.969s-3.656-9.968-8.156-9.968c-1.1369.0217413-2.2537.303398-3.2649.823397-1.0112.519993-1.89003 1.264543-2.56908 2.176603-1.53939 1.99573-2.35783 4.45381-2.32203 6.974 0 5.491 3.65601 9.963 8.15601 9.963zm0-18.124c3.5 0 6.344 3.659 6.344 8.156s-2.846 8.156-6.344 8.156-6.34397-3.66-6.34497-8.156 2.84497-8.156 6.34497-8.156zm6.344 16.312c-.2404 0-.471.0955-.641.2655s-.2655.4006-.2655.641.0955.471.2655.641.4006.2655.641.2655c1.682.0019 3.2946.6708 4.4839 1.8602 1.1893 1.1893 1.8582 2.8018 1.8601 4.4838-.0005.2401-.0962.4703-.266.6401-.1698.1697-.3999.2654-.64.2659h-23.56203c-.24012-.0005-.47022-.0962-.64001-.2659-.1698-.1698-.26547-.4-.266-.6401.00212-1.6819.67121-3.2943 1.86048-4.4835 1.18927-1.1893 2.80164-1.8584 4.48352-1.8605.24028 0 .47072-.0955.64062-.2654.16991-.1699.26538-.4003.26538-.6406s-.09547-.4707-.26538-.6406c-.1699-.1699-.40034-.2654-.64062-.2654-2.16255.0019-4.23595.8615-5.76538 2.3904-1.529436 1.5289-2.38993223 3.6021-2.39258 5.7646.00079407.7209.287502 1.412.797241 1.9217.509739.5098 1.200869.7965 1.921749.7973h23.56301c.7207-.0011 1.4116-.2879 1.9211-.7976s.7961-1.2007.7969-1.9214c-.0026-2.1623-.8628-4.2353-2.3917-5.7642-1.529-1.529-3.602-2.3892-5.7643-2.3918z" fill="#e8e8e8"/></svg>