<svg fill="none" height="32" viewBox="0 0 46 32" width="46" xmlns="http://www.w3.org/2000/svg"><path d="m30.2873 27.2429h-15.477c-.2072 1.308-.8743 2.4991-1.8813 3.3592-1.007.86-2.2879 1.3325-3.61218 1.3325-1.3243 0-2.60516-.4725-3.61218-1.3325-1.00702-.8601-1.67412-2.0512-1.88132-3.3592h-1.93701c-.49482-.0032-.968171-.2025-1.316285-.5542s-.5425743-.8269-.5407108-1.3218v-23.48995c-.002129-.495.1922018-.970615.5403438-1.322507.348143-.351892.821652-.55126937 1.316652-.554443h25.55099c.4949.00317353.9683.202522 1.3163.554443s.5421.827597.5397 1.322507v1.90503h7.121c.0804-.00034.1604.0101.238.03101 2.3.2 3.457 1.39991 4.677 3.46191l3.559 6.094c.0849.1447.1297.3093.13.477v12.4581c.0011.2475-.0962.4852-.2704.6611s-.411.2755-.6586.2768h-2.814c-.2072 1.308-.8743 2.4991-1.8813 3.3592-1.007.86-2.2879 1.3325-3.6122 1.3325s-2.6051-.4725-3.6122-1.3325c-1.007-.8601-1.6741-2.0512-1.8813-3.3592zm1.778-.9389c.0079.7329.2324 1.4471.6454 2.0527.4129.6056.9958 1.0755 1.6752 1.3506s1.4251.343 2.143.1953c.718-.1478 1.3762-.5046 1.8918-1.0256.5156-.5211.8655-1.1829 1.0058-1.9024.1402-.7195.0645-1.4643-.2177-2.1409-.2821-.6765-.7581-1.2543-1.368-1.6608-.6099-.4066-1.3265-.6238-2.0595-.6241-.9903.0064-1.9377.4055-2.6344 1.1094-.6966.7039-1.0856 1.6554-1.0816 2.6458zm-26.46396 0c.00789.7329.23242 1.4471.64535 2.0527s.99581 1.0755 1.67523 1.3506c.67943.2751 1.42505.343 2.14298.1953.718-.1478 1.3762-.5046 1.8918-1.0256.5156-.5211.8655-1.1829 1.0058-1.9024.1402-.7195.0645-1.4643-.2177-2.1409-.2821-.6765-.7581-1.2543-1.368-1.6608-.6099-.4066-1.3265-.6238-2.05949-.6241-.99052.0061-1.93816.4049-2.63501 1.1089s-1.08596 1.6557-1.08197 2.6463zm35.67196-.938h1.886v-5.6182h-2.736c-.1226-.0005-.2439-.0251-.3569-.0725-.1131-.0474-.2157-.1168-.302-.2039s-.1545-.1904-.2009-.3039c-.0463-.1135-.0698-.2351-.0692-.3577v-1.8469c-.0003-.7206.2753-1.4141.77-1.938h-6.379c-.0772-.0001-.1541-.0099-.229-.0291-.7047-.0628-1.3602-.3877-1.8369-.9106-.4766-.5229-.7396-1.2058-.7371-1.9133v-4.69998c-.0006-.12265.0229-.24434.0692-.35791s.1146-.21676.2008-.30395c.0863-.0872.1889-.15656.302-.2041.1131-.04755.2344-.07235.357-.073h6.483c-.3443-.31868-.7517-.56173-1.1957-.71314-.4441-.1514-.915-.20795-1.3823-.16601h-6.623v19.70799h.994c.2072-1.308.8743-2.4991 1.8814-3.3591 1.007-.8601 2.2878-1.3325 3.6121-1.3325s2.6052.4724 3.6122 1.3325c1.007.86 1.6741 2.0511 1.8813 3.3591zm-26.464 0h12.627v-23.49002h-25.54999v23.49002h1.93701c.2072-1.308.8743-2.4994 1.88132-3.3594 1.00702-.8601 2.28788-1.3325 3.61218-1.3325 1.32428 0 2.60518.4724 3.61218 1.3325 1.007.86 1.6741 2.0514 1.8813 3.3594zm26.542-8.4002v.9092h1.808v-1.8472h-.879c-.2468.0016-.483.101-.6569.2762s-.2714.412-.2711.6589zm-8.413-4.792c-.0011.2525.098.4953.2756.6748.1775.1796.4189.2814.6714.2832.0639-.0002.1276.0066.19.0201h8.525l-2.766-4.73588h-6.9zm.093 14.1321c-.0029-.7325.2849-1.4364.8003-1.957.5153-.5206 1.2162-.8156 1.9487-.8201.2488 0 .4874.099.6633.2749s.2747.4143.2747.6631-.0988.4874-.2747.6633-.4145.2747-.6633.2747c-.1783-.0016-.3531.05-.5021.1479-.1491.098-.2657.2378-.335.4021-.0694.1643-.0884.3457-.0545.5208.0338.1751.1189.3362.2444.4629.1255.1266.2859.2131.4607.2485s.3561.0181.5211-.0498c.1649-.0679.3059-.1834.4052-.3315.0992-.1482.1522-.3224.1522-.5008 0-.2462.0978-.4823.272-.6565.1741-.1741.4103-.2719.6565-.2719.2463 0 .4824.0978.6566.2719.1741.1742.2719.4103.2719.6565 0 .7294-.2897 1.4289-.8054 1.9446-.5158.5157-1.2152.8054-1.9446.8054-.7293 0-1.4288-.2897-1.9445-.8054-.5158-.5157-.8055-1.2152-.8055-1.9446zm-26.46399 0c-.00293-.7325.28489-1.4364.80026-1.957s1.21621-.8156 1.94876-.8201c.24877 0 .48736.099.66327.2749.1759.1759.2747.4143.2747.6631s-.0988.4874-.2747.6633c-.17591.1759-.4145.2747-.66327.2747-.17833-.0016-.35314.05-.5022.1479-.14905.098-.26564.2378-.33499.4021-.06934.1643-.08832.3457-.0545.5208s.1189.3362.24444.4629c.12555.1266.2859.2131.4607.2485s.35617.0181.52109-.0498.30596-.1834.40523-.3315c.0992-.1482.1522-.3224.1522-.5008 0-.2462.0978-.4823.272-.6565.1741-.1741.4103-.2719.6565-.2719.2463 0 .4825.0978.6566.2719.1741.1742.2719.4103.2719.6565 0 .7294-.2897 1.4289-.8054 1.9446-.5158.5157-1.2152.8054-1.94458.8054-.72934 0-1.42882-.2897-1.94454-.8054-.51573-.5157-.80546-1.2152-.80546-1.9446zm-1.85797-20.64599c-.24878 0-.48736-.09875-.66327-.27466s-.27475-.41455-.27475-.66333c0-.24877.09884-.48742.27475-.66333s.41449-.27465.66327-.27465h19.89996c.2488 0 .4874.09874.6633.27465s.2747.41456.2747.66333c0 .24878-.0988.48742-.2747.66333s-.4145.27466-.6633.27466z" fill="#f16d7f"/></svg>