<svg fill="none" height="40" viewBox="0 0 40 40" width="40" xmlns="http://www.w3.org/2000/svg"><path d="m19.994 37.0239-3.471 2.8999-2.288-3.9199-4.24 1.512-.82203-4.48-4.49298-.0449.732-4.5-4.20801-1.6001 2.21002-3.9659-3.414-2.965 3.41199-2.9671-2.20996-3.9651 4.20898-1.5998-.73303-4.49514 4.49402-.04394.82202-4.47998 4.23998 1.51098 2.288-3.91992 3.471 2.8999 3.471-2.8999 2.289 3.9209 4.24-1.51196.821 4.48095 4.494.04492-.732 4.49509 4.208 1.6001-2.21 3.9658 3.412 2.9651-3.412 2.9671 2.209 3.966-4.209 1.5999.733 4.4941-4.495.045-.821 4.4809-4.238-1.511-2.289 3.92zm1.206-1.4829 1.761 1.471 1.161-1.99.792-1.356 1.468.523 2.151.768.417-2.2732.285-1.5549 1.561-.0159 2.282-.021-.372-2.2822-.254-1.5598 1.459-.554 2.134-.8132-1.12-2.0098-.766-1.375 1.183-1.0271 1.734-1.51-1.733-1.5-1.183-1.029.766-1.376 1.121-2.011-2.134-.811-1.459-.553.255-1.5601.372-2.28096-2.282-.02295-1.56-.01586-.285-1.5542-.416-2.27295-2.152.76709-1.468.52295-.793-1.35694-1.162-1.98999-1.762 1.47095-1.205 1.00488-1.205-1.00488-1.761-1.47095-1.161 1.98902-.792 1.35693-1.469-.52295-2.15-.76807-.418 2.27393-.285 1.5542-1.55999.01587-2.28101.02197.37201 2.28201.25397 1.5581-1.45899.5549-2.13501.811 1.12104 2.011.76599 1.375-1.18299 1.0291-1.734 1.508 1.73297 1.5069 1.18298 1.029-.76599 1.375-1.12097 2.01 2.13299.8101 1.46002.5549-.255 1.5591-.37103 2.2839 2.281.023 1.56001.0161.285 1.5549.417 2.272 2.152-.7671 1.469-.5229.792 1.3569 1.162 1.9902 1.761-1.4711 1.205-1.0049zm.118-12.521c0-2.927 1.565-4.5552 3.459-4.5552 2.006 0 3.3 1.5631 3.3 4.3301 0 3.059-1.585 4.5769-3.415 4.5769-1.779 0-3.324-1.4498-3.344-4.3518zm1.521-.0881c-.023 1.851.682 3.258 1.872 3.258 1.277 0 1.85-1.385 1.85-3.3 0-1.765-.507-3.2371-1.85-3.2371-1.211-.004-1.872 1.4501-1.872 3.2781zm-7.645 4.4001 8.415-14.719h1.233l-8.415 14.719zm-3.215-10.342c0-2.9 1.563-4.532 3.458-4.532 2 0 3.326 1.564 3.326 4.332 0 3.058-1.586 4.575-3.436 4.575-1.783 0-3.327-1.45-3.348-4.374zm1.542-.0662c-.044 1.851.641 3.2571 1.85 3.2591 1.277 0 1.85-1.3841 1.85-3.3001 0-1.766-.507-3.2378-1.85-3.2378-1.209-.003-1.85 1.447-1.85 3.28z" fill="#f16d7f"/></svg>