<svg fill="none" height="35" viewBox="0 0 48 35" width="48" xmlns="http://www.w3.org/2000/svg"><path d="m42.3938 8.53564c-1.2164-.01229-2.388.45785-3.2587 1.30738-.8707.84948-1.3696 2.00918-1.3872 3.22558.0031.64.1441 1.2719.4133 1.8525.2692.5807.6603 1.0965 1.1467 1.5125l-5.86 2.0552-8.339-9.68314c.8953-.29873 1.6751-.8692 2.2307-1.63208.5557-.76287.8596-1.68027.8693-2.62402-.0252-1.21524-.5257-2.37213-1.394-3.22266-.8684-.850523-2.0355-1.3269-3.251-1.3269s-2.3826.476377-3.251 1.3269c-.8683.85053-1.3688 2.00742-1.394 3.22266.0096.93439.3072 1.84318.8521 2.6023.545.75911 1.3107 1.33182 2.1929 1.63989l-8.352 9.69995-5.85794-2.0549c.48607-.4162.87678-.9323 1.14563-1.513.26884-.5806.40949-1.2122.41235-1.852.02303-.8768-.20257-1.7422-.65064-2.4961-.44806-.75398-1.10035-1.3658-1.88147-1.76466-.78111-.39887-1.65911-.56864-2.53259-.48951-.87348.07914-1.70673.40402-2.40344.93677s-1.22842 1.2518-1.533692 2.074c-.30527105.8222-.3716318 1.7139-.191406 2.5722.180226.8584.599647 1.6481 1.209838 2.2781.61019.63 1.38626 1.0745 2.2384 1.282v12.291c.00736.082.02407.1628.04993.241-.03293.1267-.04966.2572-.04993.3882 0 4.412 17.91896 4.542 19.96196 4.542s19.962-.129 19.962-4.542c-.0007-.1309-.0176-.2614-.0501-.3882.0277-.0777.0445-.1587.0501-.241v-12.291c1.0989-.2402 2.0686-.8818 2.7194-1.7993.6507-.9175.9355-2.0449.7988-3.1614s-.6852-2.1418-1.5381-2.87524c-.8529-.7334-1.9487-1.12213-3.0731-1.09009zm-21.2189-3.98388c-.0116-.47421.1185-.94114.3736-1.34107s.6235-.71478 1.0584-.90429c.4348-.18952.9163-.24508 1.3829-.15967s.8972.3079 1.2367.63916.5726.75611.6694 1.22046c.0969.46435.0532.9471-.1256 1.38647-.1787.43938-.4844.81549-.8779 1.08032-.3936.26484-.8571.40636-1.3314.4065-.6248.00641-1.2267-.23483-1.6739-.67114-.4471-.43632-.7033-1.03203-.7122-1.65674zm-7.59 16.27584c.217.075.4513.0837.6732.0249.2219-.0587.4213-.1824.5728-.3549l8.7-10.0999 8.7 10.0999c.1512.1726.3504.2962.5721.3552.2218.0589.4559.0505.6729-.0242l7.758-2.7248v9.937c-4.885-2.122-16.109-2.2002-17.7-2.2002s-12.819.0792-17.69999 2.2002v-9.937zm9.943 11.889c-8.7 0-14.24902-1.0109-16.55703-1.8619-.35107-.1174-.6868-.2767-1-.4741.722-.521 3.06107-1.2319 6.96603-1.7319 7.0354-.8047 14.1396-.8047 21.175 0 3.9.5 6.2451 1.2109 6.9651 1.7319-.3107.1988-.6449.3582-.995.4741-2.302.849-7.8461 1.8619-16.5541 1.8619zm-21.24697-19.648c-.01113-.4741.11932-.9407.37464-1.3403.25532-.3997.62395-.7144 1.05884-.9036.43488-.1892.91622-.2446 1.38269-.1589.46646.0856.89689.3085 1.2362.6399.33931.3313.57213.7561.66882 1.2204.0967.4643.05286.947-.12597 1.3863-.17883.4392-.48456.8153-.87805 1.08-.3935.2648-.85692.4062-1.33118.4063-.62516.0067-1.22751-.2349-1.6748-.6716-.4473-.4368-.70301-1.0334-.71119-1.6585zm40.11287 2.3301c-.4579-.0112-.9024-.1573-1.2778-.4199s-.665-.6301-.8326-1.0564c-.1676-.4264-.2058-.8927-.1096-1.3406.0961-.4479.3222-.8577.65-1.1777.3278-.3201.7426-.5364 1.1927-.6219.4501-.0854.9154-.0363 1.3377.1414s.7828.4761 1.0364.8576c.2536.3816.389.8293.3894 1.2874-.0087.6249-.2647 1.2209-.712 1.6575-.4472.4365-1.0492.678-1.6742.6716z" fill="#f16d7f"/></svg>