<svg fill="none" height="28" viewBox="0 0 27 28" width="27" xmlns="http://www.w3.org/2000/svg"><path d="m19.0596 17.6259c1.6117-1.7601 2.5686-4.0211 2.7102-6.4034.1415-2.38232-.541-4.74077-1.9329-6.67932s-3.4084-3.33914-5.7109-3.966561c-2.3026-.6274199-4.7509-.443459-6.93383.520991-2.18294.96444-3.96754 2.65064-5.05413 4.77541-1.08659 2.12478-1.408986 4.55878-.91304 6.89308.49594 2.3344 1.78001 4.4271 3.63658 5.9266 1.85656 1.4995 4.17255 2.3145 6.55902 2.3082 2.2524.0031 4.4439-.7309 6.24-2.09l7.748 7.807c.0855.0891.1879.1602.3013.2091.1133.0489.2353.0747.3587.0759.1237.0004.2462-.0247.3597-.0737.1136-.0491.2158-.121.3003-.2113.1739-.1809.2711-.4221.2711-.673s-.0972-.4921-.2711-.673zm-16.17298-7.125c.01284-1.68527.52432-3.32903 1.46997-4.72405s2.28313-2.47884 3.84385-3.11485c1.56071-.63601 3.27476-.79573 4.92616-.45902 1.6513.33671 3.166 1.15477 4.3531 2.35106s1.9935 2.71725 2.3175 4.37115c.324 1.65391.1511 3.36671-.497 4.92241-.648 1.5558-1.7421 2.8849-3.1443 3.8198-1.4023.9349-3.05 1.4337-4.7353 1.4335-2.27144-.0108-4.44578-.9225-6.04576-2.5349-1.59998-1.6123-2.49486-3.7936-2.48822-6.0651z" fill="#e8e8e8"/></svg>